<svg width="117" height="19" viewBox="0 0 117 19" fill="none" xmlns="http://www.w3.org/2000/svg">
<path d="M2.872 18H0.052V0.719999H2.872V18ZM26.3101 0.719999V18H23.8381V6.156C23.8381 5.964 23.8421 5.756 23.8501 5.532C23.8661 5.3 23.8861 5.068 23.9101 4.836L18.3541 15.096C18.1381 15.52 17.8061 15.732 17.3581 15.732H16.9621C16.5061 15.732 16.1741 15.52 15.9661 15.096L10.3261 4.812C10.3501 5.044 10.3661 5.276 10.3741 5.508C10.3901 5.74 10.3981 5.956 10.3981 6.156V18H7.92606V0.719999H10.0261C10.2741 0.719999 10.4661 0.743999 10.6021 0.792C10.7381 0.832 10.8621 0.964 10.9741 1.188L16.5181 11.232C16.6381 11.464 16.7501 11.704 16.8541 11.952C16.9661 12.192 17.0661 12.44 17.1541 12.696C17.2501 12.44 17.3501 12.188 17.4541 11.94C17.5661 11.684 17.6821 11.44 17.8021 11.208L23.2621 1.188C23.3741 0.964 23.4981 0.832 23.6341 0.792C23.7701 0.743999 23.9621 0.719999 24.2101 0.719999H26.3101ZM45.5106 9.492V16.332C43.7906 17.572 41.7906 18.192 39.5106 18.192C38.1106 18.192 36.8426 17.976 35.7066 17.544C34.5786 17.104 33.6146 16.496 32.8146 15.72C32.0146 14.936 31.3986 14.004 30.9666 12.924C30.5346 11.844 30.3186 10.656 30.3186 9.36C30.3186 8.056 30.5266 6.864 30.9426 5.784C31.3586 4.696 31.9546 3.764 32.7306 2.988C33.5066 2.204 34.4426 1.6 35.5386 1.176C36.6346 0.743999 37.8666 0.527999 39.2346 0.527999C39.9306 0.527999 40.5746 0.583999 41.1666 0.696C41.7666 0.8 42.3226 0.947999 42.8346 1.14C43.3466 1.332 43.8186 1.564 44.2506 1.836C44.6826 2.108 45.0786 2.412 45.4386 2.748L44.6346 4.032C44.5066 4.232 44.3426 4.356 44.1426 4.404C43.9426 4.452 43.7266 4.404 43.4946 4.26C43.2626 4.124 43.0146 3.98 42.7506 3.828C42.4946 3.676 42.1986 3.536 41.8626 3.408C41.5266 3.272 41.1386 3.164 40.6986 3.084C40.2586 2.996 39.7386 2.952 39.1386 2.952C38.2266 2.952 37.4026 3.104 36.6666 3.408C35.9386 3.704 35.3146 4.132 34.7946 4.692C34.2746 5.244 33.8746 5.916 33.5946 6.708C33.3146 7.5 33.1746 8.384 33.1746 9.36C33.1746 10.392 33.3226 11.316 33.6186 12.132C33.9146 12.94 34.3346 13.628 34.8786 14.196C35.4226 14.756 36.0786 15.184 36.8466 15.48C37.6226 15.776 38.4866 15.924 39.4386 15.924C40.1506 15.924 40.7826 15.848 41.3346 15.696C41.8946 15.544 42.4426 15.332 42.9786 15.06V11.628H40.5666C40.3826 11.628 40.2386 11.58 40.1346 11.484C40.0306 11.38 39.9786 11.248 39.9786 11.088V9.492H45.5106ZM60.5716 15.732L60.5596 18H49.7836V0.719999H60.5596V2.988H52.6036V8.196H58.9636V10.392H52.6036V15.732H60.5716ZM71.4349 8.772C71.0749 8.308 70.6789 7.984 70.2469 7.8C69.8149 7.616 69.3469 7.524 68.8429 7.524C67.8349 7.524 67.0469 7.896 66.4789 8.64C65.9109 9.376 65.6269 10.468 65.6269 11.916C65.6269 12.668 65.6909 13.312 65.8189 13.848C65.9469 14.376 66.1309 14.808 66.3709 15.144C66.6109 15.48 66.9029 15.724 67.2469 15.876C67.5909 16.028 67.9789 16.104 68.4109 16.104C69.0669 16.104 69.6309 15.964 70.1029 15.684C70.5829 15.396 71.0269 14.992 71.4349 14.472V8.772ZM74.0149 0.24V18H72.4549C72.1109 18 71.8909 17.836 71.7949 17.508L71.5669 16.176C71.0549 16.776 70.4709 17.26 69.8149 17.628C69.1669 17.996 68.4109 18.18 67.5469 18.18C66.8589 18.18 66.2349 18.044 65.6749 17.772C65.1149 17.492 64.6349 17.088 64.2349 16.56C63.8349 16.032 63.5229 15.38 63.2989 14.604C63.0829 13.82 62.9749 12.924 62.9749 11.916C62.9749 11.004 63.0949 10.16 63.3349 9.384C63.5829 8.608 63.9349 7.936 64.3909 7.368C64.8469 6.792 65.3989 6.344 66.0469 6.024C66.7029 5.696 67.4349 5.532 68.2429 5.532C68.9629 5.532 69.5749 5.648 70.0789 5.88C70.5829 6.104 71.0349 6.42 71.4349 6.828V0.24H74.0149ZM80.8178 5.76V18H78.2378V5.76H80.8178ZM81.2498 2.064C81.2498 2.296 81.2018 2.516 81.1058 2.724C81.0178 2.932 80.8938 3.116 80.7338 3.276C80.5738 3.428 80.3858 3.552 80.1698 3.648C79.9618 3.736 79.7378 3.78 79.4978 3.78C79.2658 3.78 79.0458 3.736 78.8378 3.648C78.6378 3.552 78.4618 3.428 78.3098 3.276C78.1578 3.116 78.0338 2.932 77.9378 2.724C77.8498 2.516 77.8058 2.296 77.8058 2.064C77.8058 1.824 77.8498 1.6 77.9378 1.392C78.0338 1.184 78.1578 1.004 78.3098 0.852C78.4618 0.691999 78.6378 0.567999 78.8378 0.48C79.0458 0.383999 79.2658 0.335999 79.4978 0.335999C79.7378 0.335999 79.9618 0.383999 80.1698 0.48C80.3858 0.567999 80.5738 0.691999 80.7338 0.852C80.8938 1.004 81.0178 1.184 81.1058 1.392C81.2018 1.6 81.2498 1.824 81.2498 2.064ZM88.9435 18.192C87.9275 18.192 87.1435 17.908 86.5915 17.34C86.0475 16.764 85.7755 15.956 85.7755 14.916V7.788H84.4315C84.2875 7.788 84.1635 7.744 84.0595 7.656C83.9555 7.56 83.9035 7.42 83.9035 7.236V6.192L85.8835 5.904L86.4475 2.364C86.4875 2.228 86.5555 2.12 86.6515 2.04C86.7475 1.952 86.8755 1.908 87.0355 1.908H88.3555V5.928H91.7515V7.788H88.3555V14.736C88.3555 15.176 88.4635 15.512 88.6795 15.744C88.8955 15.976 89.1835 16.092 89.5435 16.092C89.7435 16.092 89.9155 16.068 90.0595 16.02C90.2035 15.964 90.3275 15.908 90.4315 15.852C90.5355 15.788 90.6235 15.732 90.6955 15.684C90.7755 15.628 90.8515 15.6 90.9235 15.6C91.0675 15.6 91.1835 15.68 91.2715 15.84L92.0395 17.1C91.6395 17.452 91.1675 17.724 90.6235 17.916C90.0795 18.1 89.5195 18.192 88.9435 18.192ZM99.9434 5.568C100.847 5.568 101.663 5.716 102.391 6.012C103.127 6.308 103.751 6.728 104.263 7.272C104.783 7.816 105.183 8.476 105.463 9.252C105.743 10.028 105.883 10.9 105.883 11.868C105.883 12.836 105.743 13.708 105.463 14.484C105.183 15.26 104.783 15.924 104.263 16.476C103.751 17.02 103.127 17.44 102.391 17.736C101.663 18.032 100.847 18.18 99.9434 18.18C99.0314 18.18 98.2074 18.032 97.4714 17.736C96.7434 17.44 96.1194 17.02 95.5994 16.476C95.0794 15.924 94.6794 15.26 94.3994 14.484C94.1194 13.708 93.9794 12.836 93.9794 11.868C93.9794 10.9 94.1194 10.028 94.3994 9.252C94.6794 8.476 95.0794 7.816 95.5994 7.272C96.1194 6.728 96.7434 6.308 97.4714 6.012C98.2074 5.716 99.0314 5.568 99.9434 5.568ZM99.9434 16.164C101.047 16.164 101.867 15.796 102.403 15.06C102.947 14.316 103.219 13.256 103.219 11.88C103.219 10.504 102.947 9.444 102.403 8.7C101.867 7.948 101.047 7.572 99.9434 7.572C98.8234 7.572 97.9914 7.948 97.4474 8.7C96.9034 9.444 96.6314 10.504 96.6314 11.88C96.6314 13.256 96.9034 14.316 97.4474 15.06C97.9914 15.796 98.8234 16.164 99.9434 16.164ZM111.758 8.028C112.142 7.252 112.606 6.644 113.15 6.204C113.694 5.756 114.346 5.532 115.106 5.532C115.37 5.532 115.618 5.564 115.85 5.628C116.082 5.684 116.29 5.772 116.474 5.892L116.294 7.836C116.262 7.972 116.21 8.068 116.138 8.124C116.074 8.172 115.986 8.196 115.874 8.196C115.754 8.196 115.582 8.176 115.358 8.136C115.134 8.088 114.898 8.064 114.65 8.064C114.29 8.064 113.97 8.116 113.69 8.22C113.418 8.324 113.17 8.476 112.946 8.676C112.73 8.876 112.538 9.12 112.37 9.408C112.202 9.696 112.046 10.024 111.902 10.392V18H109.322V5.76H110.822C111.094 5.76 111.282 5.812 111.386 5.916C111.49 6.012 111.562 6.184 111.602 6.432L111.758 8.028Z" fill="white"/>
</svg>
